<svg version="1.1" id="Layer_1" xmlns="http://www.w3.org/2000/svg" xmlns:xlink="http://www.w3.org/1999/xlink" x="0px" y="0px"
	 width="100%" viewBox="0 0 150 150" enable-background="new 0 0 150 150" xml:space="preserve">
<path fill="#000000" opacity="1.000000" stroke="none" 
	d="
M151.000000,59.000000 
	C151.000000,90.000000 151.000000,120.500000 151.000000,151.000000 
	C101.000000,151.000000 51.000000,151.000000 1.000000,151.000000 
	C1.000000,101.000000 1.000000,51.000000 1.000000,1.000000 
	C51.000000,1.000000 101.000000,1.000000 151.000000,1.000000 
	C151.000000,20.166666 151.000000,39.333332 151.000000,59.000000 
M35.499840,86.994873 
	C25.675213,93.727081 21.780581,103.518768 22.259058,114.903038 
	C22.418543,118.697655 24.238501,123.210960 26.838533,125.916718 
	C30.154711,129.367737 34.733582,132.156860 39.285797,133.776382 
	C63.269157,142.308884 87.627159,141.893723 111.672920,134.412491 
	C130.832962,128.451309 133.837845,118.070343 127.589172,100.568024 
	C125.422554,94.499405 119.231216,89.706970 114.375397,84.832466 
	C112.210091,82.658813 111.076599,81.031136 111.117386,77.758904 
	C111.311760,62.165165 111.985802,46.486389 110.667862,30.992796 
	C109.556549,17.928371 99.168549,10.953450 87.997192,4.100514 
	C87.997192,8.655944 87.997192,12.239380 87.997192,15.596405 
	C80.150787,15.596405 72.812935,15.596405 64.931992,15.596405 
	C64.931992,11.917159 64.931992,8.018178 64.931992,2.959942 
	C60.203094,6.756589 56.428162,9.897283 52.537708,12.887691 
	C44.698631,18.913216 41.319305,27.199984 41.079212,36.699024 
	C40.759407,49.351791 40.503895,62.047634 41.235306,74.666168 
	C41.550690,80.107399 40.768166,83.861923 35.499840,86.994873 
z"/>
<path fill="#231F20" opacity="1.000000" stroke="none" 
	d="
M35.754189,86.742409 
	C40.768166,83.861923 41.550690,80.107399 41.235306,74.666168 
	C40.503895,62.047634 40.759407,49.351791 41.079212,36.699024 
	C41.319305,27.199984 44.698631,18.913216 52.537708,12.887691 
	C56.428162,9.897283 60.203094,6.756589 64.931992,2.959942 
	C64.931992,8.018178 64.931992,11.917159 64.931992,15.596405 
	C72.812935,15.596405 80.150787,15.596405 87.997192,15.596405 
	C87.997192,12.239380 87.997192,8.655944 87.997192,4.100514 
	C99.168549,10.953450 109.556549,17.928371 110.667862,30.992796 
	C111.985802,46.486389 111.311760,62.165165 111.117386,77.758904 
	C111.076599,81.031136 112.210091,82.658813 114.375397,84.832466 
	C119.231216,89.706970 125.422554,94.499405 127.589172,100.568024 
	C133.837845,118.070343 130.832962,128.451309 111.672920,134.412491 
	C87.627159,141.893723 63.269157,142.308884 39.285797,133.776382 
	C34.733582,132.156860 30.154711,129.367737 26.838533,125.916718 
	C24.238501,123.210960 22.418543,118.697655 22.259058,114.903038 
	C21.780581,103.518768 25.675213,93.727081 35.754189,86.742409 
M109.698921,127.007362 
	C110.458076,126.702820 111.217224,126.398285 112.693138,125.961853 
	C116.013397,123.474220 121.227753,121.594223 122.261169,118.372948 
	C124.438820,111.584991 123.841331,103.981468 118.554543,98.299507 
	C114.897873,94.369507 110.236496,91.374344 105.981247,87.250557 
	C104.969902,86.165451 103.958549,85.080345 102.997169,83.181915 
	C103.657593,76.443932 104.797798,69.710800 104.865913,62.966835 
	C104.967911,52.868141 104.557732,42.745926 103.892593,32.664913 
	C103.511360,26.886856 100.533485,22.225027 95.255424,18.398453 
	C95.061928,21.535650 94.914337,23.928671 94.788956,25.961540 
	C88.206291,24.593845 82.126678,23.330673 75.223396,22.066320 
	C69.482750,23.711826 63.742100,25.357332 58.000683,26.201952 
	C57.664341,24.467144 57.328003,22.732338 56.887127,20.480021 
	C56.124107,20.623077 55.116673,20.503103 54.635876,20.949877 
	C49.825115,25.420240 48.133350,31.255205 48.044319,37.553307 
	C47.894257,48.168869 47.806870,58.793339 48.092819,69.403290 
	C48.215305,73.948227 49.340355,78.466156 49.558296,83.499802 
	C48.701218,84.982414 47.844139,86.465027 46.367870,88.255653 
	C45.487446,88.719810 44.598640,89.168808 43.727894,89.650452 
	C34.958714,94.501122 29.996773,101.876984 29.111042,111.890266 
	C28.340090,120.605965 34.449341,123.974731 41.568283,127.251724 
	C42.384068,127.494415 43.199856,127.737106 44.713600,128.289612 
	C55.150272,129.823410 65.586945,131.357224 76.858444,132.900146 
	C80.459229,132.600021 84.124886,132.627808 87.647209,131.931015 
	C94.826927,130.510742 101.929398,128.699997 109.698921,127.007362 
z"/>
<path fill="#2F373D" opacity="1.000000" stroke="none" 
	d="
M76.047073,22.067501 
	C82.126678,23.330673 88.206291,24.593845 94.788956,25.961540 
	C94.914337,23.928671 95.061928,21.535650 95.255424,18.398453 
	C100.533485,22.225027 103.511360,26.886856 103.892593,32.664913 
	C104.557732,42.745926 104.967911,52.868141 104.865913,62.966835 
	C104.797798,69.710800 103.657593,76.443932 102.635315,83.646545 
	C99.889641,85.868050 96.976410,87.211906 95.222466,89.460167 
	C90.205772,95.890701 83.849586,98.138954 75.948257,96.700706 
	C75.304062,95.701820 74.723793,94.987465 74.141533,94.270668 
	C75.787773,93.132607 77.399391,92.018478 79.395805,90.795914 
	C87.533234,90.122757 97.958618,81.380386 99.729080,73.648071 
	C99.306999,72.592079 98.738785,71.337021 98.258957,71.369957 
	C92.384323,71.773056 86.522865,72.367195 80.657524,72.906845 
	C78.435333,73.111290 76.211960,73.302826 74.086823,73.130966 
	C74.791222,65.198288 75.231834,57.616066 76.085640,50.080666 
	C76.431694,47.026535 77.678398,44.074455 78.502609,41.121315 
	C77.808830,41.042210 76.007797,40.836868 73.528923,40.554237 
	C75.655052,39.211090 77.030823,38.341969 78.406593,37.472847 
	C77.867661,37.423901 77.328735,37.374954 76.789803,37.326008 
	C76.542229,32.239841 76.294655,27.153671 76.047073,22.067501 
M97.913574,59.477871 
	C96.872787,58.013813 95.568573,55.173977 94.835022,55.314438 
	C90.812767,56.084633 86.930397,57.585384 82.308960,59.181904 
	C82.473732,59.851208 82.661858,61.110088 82.799904,61.104626 
	C87.833076,60.905281 92.861588,60.588413 97.913574,59.477871 
z"/>
<path fill="#262C31" opacity="1.000000" stroke="none" 
	d="
M75.635239,22.066912 
	C76.294655,27.153671 76.542229,32.239841 76.789803,37.326008 
	C77.328735,37.374954 77.867661,37.423901 78.406593,37.472847 
	C77.030823,38.341969 75.655052,39.211090 73.528923,40.554237 
	C76.007797,40.836868 77.808830,41.042210 78.502609,41.121315 
	C77.678398,44.074455 76.431694,47.026535 76.085640,50.080666 
	C75.231834,57.616066 74.791222,65.198288 73.743584,73.065536 
	C66.715813,72.391434 60.128975,71.413490 53.512436,70.431129 
	C52.485611,80.683701 65.261742,91.404816 76.395035,90.906288 
	C77.514496,90.947319 78.262749,90.925835 79.011002,90.904343 
	C77.399391,92.018478 75.787773,93.132607 74.141533,94.270668 
	C74.723793,94.987465 75.304062,95.701820 75.942505,96.707687 
	C76.000671,96.999207 75.992371,97.009460 75.541718,97.006302 
	C67.503868,98.093613 61.638741,95.238510 56.834480,89.427986 
	C54.857933,87.037453 52.302170,85.125816 50.009872,82.996353 
	C49.340355,78.466156 48.215305,73.948227 48.092819,69.403290 
	C47.806870,58.793339 47.894257,48.168869 48.044319,37.553307 
	C48.133350,31.255205 49.825115,25.420240 54.635876,20.949877 
	C55.116673,20.503103 56.124107,20.623077 56.683552,20.978134 
	C55.190365,24.403631 53.900749,27.331017 52.611137,30.258402 
	C52.916485,30.513142 53.221832,30.767881 53.527184,31.022621 
	C55.018604,29.682695 56.510029,28.342768 58.001450,27.002840 
	C63.742100,25.357332 69.482750,23.711826 75.635239,22.066912 
M58.859375,57.827553 
	C57.585026,58.594395 56.310680,59.361233 54.485909,60.459290 
	C60.704212,60.459290 65.793610,60.459290 70.883011,60.459290 
	C70.874069,60.046112 70.865120,59.632935 70.856178,59.219757 
	C67.150635,58.788670 63.445099,58.357582 58.859375,57.827553 
z"/>
<path fill="#2F373D" opacity="1.000000" stroke="none" 
	d="
M40.985294,126.975082 
	C34.449341,123.974731 28.340090,120.605965 29.111042,111.890266 
	C29.996773,101.876984 34.958714,94.501122 43.727894,89.650452 
	C44.598640,89.168808 45.487446,88.719810 47.017548,88.170929 
	C49.433746,89.547104 51.537777,90.746338 52.908340,92.514198 
	C58.829102,100.151283 66.446053,103.328568 76.242142,101.986313 
	C76.667908,102.003113 76.838165,102.010933 77.079193,102.376770 
	C78.277382,103.522316 79.502419,104.203438 80.506889,105.124969 
	C81.692070,106.212303 82.686440,107.507614 83.385262,108.540779 
	C79.767754,107.910202 76.468193,106.822243 73.302040,107.125801 
	C66.978485,107.732071 62.833752,114.273674 65.046944,119.285614 
	C66.991379,123.688927 74.449020,126.930412 79.043266,125.369156 
	C86.900658,122.698975 88.990807,119.372635 87.693207,112.269699 
	C88.715446,113.786659 89.898186,115.303619 89.846657,116.777428 
	C89.651543,122.359032 85.932838,125.229713 81.053368,126.791023 
	C77.969246,127.777863 75.492233,129.031387 76.023613,132.891037 
	C65.586945,131.357224 55.150272,129.823410 44.359055,127.668610 
	C44.004509,121.275391 44.004509,115.503181 44.004509,109.730972 
	C43.241413,109.701111 42.478317,109.671242 41.715221,109.641373 
	C40.206417,115.277702 41.368008,121.212776 40.985294,126.975082 
z"/>
<path fill="#333D42" opacity="1.000000" stroke="none" 
	d="
M76.441025,132.895599 
	C75.492233,129.031387 77.969246,127.777863 81.053368,126.791023 
	C85.932838,125.229713 89.651543,122.359032 89.846657,116.777428 
	C89.898186,115.303619 88.715446,113.786659 87.495712,112.073898 
	C85.849144,110.809769 84.806343,109.761261 83.763542,108.712753 
	C82.686440,107.507614 81.692070,106.212303 80.506889,105.124969 
	C79.502419,104.203438 78.277382,103.522316 77.534706,102.371506 
	C86.890388,103.337158 93.643188,99.472702 99.498283,93.099091 
	C101.347054,91.086609 103.830887,89.657532 106.024071,87.961449 
	C110.236496,91.374344 114.897873,94.369507 118.554543,98.299507 
	C123.841331,103.981468 124.438820,111.584991 122.261169,118.372948 
	C121.227753,121.594223 116.013397,123.474220 112.340561,125.551773 
	C111.236839,120.139168 113.671661,114.596001 109.063698,110.174599 
	C109.063698,115.799774 109.063698,121.424942 109.063698,127.050110 
	C101.929398,128.699997 94.826927,130.510742 87.647209,131.931015 
	C84.124886,132.627808 80.459229,132.600021 76.441025,132.895599 
z"/>
<path fill="#242B30" opacity="1.000000" stroke="none" 
	d="
M106.002655,87.606003 
	C103.830887,89.657532 101.347054,91.086609 99.498283,93.099091 
	C93.643188,99.472702 86.890388,103.337158 77.463943,102.013481 
	C76.838165,102.010933 76.667908,102.003113 76.246964,101.572937 
	C75.994980,99.770218 75.993675,98.389839 75.992371,97.009460 
	C75.992371,97.009460 76.000671,96.999207 76.006424,96.992226 
	C83.849586,98.138954 90.205772,95.890701 95.222466,89.460167 
	C96.976410,87.211906 99.889641,85.868050 102.610329,84.053215 
	C103.958549,85.080345 104.969902,86.165451 106.002655,87.606003 
z"/>
<path fill="#1D2529" opacity="1.000000" stroke="none" 
	d="
M75.541718,97.006302 
	C75.993675,98.389839 75.994980,99.770218 75.991455,101.563972 
	C66.446053,103.328568 58.829102,100.151283 52.908340,92.514198 
	C51.537777,90.746338 49.433746,89.547104 47.327145,88.016930 
	C47.844139,86.465027 48.701218,84.982414 49.784084,83.248077 
	C52.302170,85.125816 54.857933,87.037453 56.834480,89.427986 
	C61.638741,95.238510 67.503868,98.093613 75.541718,97.006302 
z"/>
<path fill="#252C32" opacity="1.000000" stroke="none" 
	d="
M41.276787,127.113403 
	C41.368008,121.212776 40.206417,115.277702 41.715221,109.641373 
	C42.478317,109.671242 43.241413,109.701111 44.004509,109.730972 
	C44.004509,115.503181 44.004509,121.275391 44.010075,127.513702 
	C43.199856,127.737106 42.384068,127.494415 41.276787,127.113403 
z"/>
<path fill="#262D32" opacity="1.000000" stroke="none" 
	d="
M109.381310,127.028732 
	C109.063698,121.424942 109.063698,115.799774 109.063698,110.174599 
	C113.671661,114.596001 111.236839,120.139168 111.982185,125.617722 
	C111.217224,126.398285 110.458076,126.702820 109.381310,127.028732 
z"/>
<path fill="#1E2528" opacity="1.000000" stroke="none" 
	d="
M58.001068,26.602396 
	C56.510029,28.342768 55.018604,29.682695 53.527184,31.022621 
	C53.221832,30.767881 52.916485,30.513142 52.611137,30.258402 
	C53.900749,27.331017 55.190365,24.403631 56.735817,21.236889 
	C57.328003,22.732338 57.664341,24.467144 58.001068,26.602396 
z"/>
<path fill="#CE9C8C" opacity="1.000000" stroke="none" 
	d="
M76.023834,90.843773 
	C65.261742,91.404816 52.485611,80.683701 53.512436,70.431129 
	C60.128975,71.413490 66.715813,72.391434 73.645889,73.434814 
	C76.211960,73.302826 78.435333,73.111290 80.657524,72.906845 
	C86.522865,72.367195 92.384323,71.773056 98.258957,71.369957 
	C98.738785,71.337021 99.306999,72.592079 99.286530,73.639526 
	C92.797218,74.410202 86.823509,74.546791 80.933777,75.321632 
	C79.220634,75.546989 77.747475,77.596588 76.164314,78.809967 
	C77.901405,79.603363 79.646179,80.380798 81.365990,81.210030 
	C81.584846,81.315559 81.673218,81.691704 81.820793,81.943207 
	C75.959450,84.219383 75.959450,84.219383 76.023834,90.843773 
z"/>
<path fill="#E7AB99" opacity="1.000000" stroke="none" 
	d="
M76.395035,90.906288 
	C75.959450,84.219383 75.959450,84.219383 81.820793,81.943207 
	C81.673218,81.691704 81.584846,81.315559 81.365990,81.210030 
	C79.646179,80.380798 77.901405,79.603363 76.164314,78.809967 
	C77.747475,77.596588 79.220634,75.546989 80.933777,75.321632 
	C86.823509,74.546791 92.797218,74.410202 99.181465,74.038933 
	C97.958618,81.380386 87.533234,90.122757 79.395805,90.795906 
	C78.262749,90.925835 77.514496,90.947319 76.395035,90.906288 
z"/>
<path fill="#F1F2F2" opacity="1.000000" stroke="none" 
	d="
M97.890747,60.287712 
	C92.861588,60.588413 87.833076,60.905281 82.799904,61.104626 
	C82.661858,61.110088 82.473732,59.851208 83.062653,59.069172 
	C85.599953,58.672020 87.387497,58.410160 89.166283,58.098270 
	C92.406120,57.530190 95.655647,56.872932 97.890747,60.287712 
z"/>
<path fill="#30373C" opacity="1.000000" stroke="none" 
	d="
M97.902161,59.882793 
	C95.655647,56.872932 92.406120,57.530190 89.166283,58.098270 
	C87.387497,58.410160 85.599953,58.672020 83.408173,58.895836 
	C86.930397,57.585384 90.812767,56.084633 94.835022,55.314438 
	C95.568573,55.173977 96.872787,58.013813 97.902161,59.882793 
z"/>
<path fill="#F6F6F6" opacity="1.000000" stroke="none" 
	d="
M59.299469,57.877022 
	C63.445099,58.357582 67.150635,58.788670 70.856178,59.219757 
	C70.865120,59.632935 70.874069,60.046112 70.883011,60.459290 
	C65.793610,60.459290 60.704212,60.459290 54.485909,60.459290 
	C56.310680,59.361233 57.585026,58.594395 59.299469,57.877022 
z"/>
<path fill="#E0BD3D" opacity="1.000000" stroke="none" 
	d="
M83.385262,108.540779 
	C84.806343,109.761261 85.849144,110.809769 87.089439,112.054085 
	C88.990807,119.372635 86.900658,122.698975 79.043266,125.369156 
	C74.449020,126.930412 66.991379,123.688927 65.046944,119.285614 
	C62.833752,114.273674 66.978485,107.732071 73.302040,107.125801 
	C76.468193,106.822243 79.767754,107.910202 83.385262,108.540779 
M77.310699,121.586304 
	C78.151413,120.706947 78.992126,119.827591 80.030624,118.741356 
	C80.774200,120.135132 81.257774,121.041550 81.768250,121.998405 
	C87.227722,117.420937 87.086090,113.856331 81.570488,110.347679 
	C81.024078,111.309456 80.476860,112.272652 79.728638,113.589645 
	C77.157501,107.046562 74.929764,109.993492 72.532349,113.290024 
	C72.083405,112.195938 71.689659,111.236382 71.278290,110.233871 
	C65.294113,114.211693 65.327400,118.515205 71.132973,121.784950 
	C71.719833,120.844505 72.306702,119.904060 72.764893,119.169800 
	C74.413094,120.353622 75.685608,121.267609 77.310699,121.586304 
z"/>
<path fill="#272D29" opacity="1.000000" stroke="none" 
	d="
M77.134415,121.883942 
	C75.685608,121.267609 74.413094,120.353622 72.764893,119.169800 
	C72.306702,119.904060 71.719833,120.844505 71.132401,121.786789 
	C65.327400,118.515205 65.294113,114.211693 71.278290,110.233871 
	C71.689659,111.236382 72.083405,112.195938 72.532349,113.290024 
	C74.929764,109.993492 77.157501,107.046562 79.728638,113.589645 
	C80.476860,112.272652 81.024078,111.309456 81.570488,110.347679 
	C87.086090,113.856331 87.227722,117.420937 81.768250,121.998405 
	C81.257774,121.041550 80.774200,120.135132 80.030624,118.741356 
	C78.992126,119.827591 78.151413,120.706947 77.134415,121.883942 
z"/>
</svg>